<svg width="27" height="26" viewBox="0 0 27 26" fill="none" xmlns="http://www.w3.org/2000/svg">
<path d="M13.5 3.92115L11.3746 0.796619C10.3629 -0.696131 8.04104 0.0648793 8.08472 1.87228L8.18662 5.65537L4.64193 4.38946C2.95329 3.78212 1.51213 5.77245 2.6112 7.19935L4.90396 10.1995L1.29377 11.2678C-0.431257 11.78 -0.431257 14.2314 1.29377 14.7436L4.91124 15.8119L2.61848 18.8121C1.51941 20.2463 2.96058 22.2293 4.64921 21.6219L8.18662 20.3487L8.08472 24.1318C8.03377 25.9392 10.3556 26.6929 11.3746 25.2075L13.5 22.0829L15.6254 25.2075C16.6371 26.7002 18.959 25.9392 18.9153 24.1318L18.8134 20.3487L22.3581 21.6146C24.0467 22.222 25.4879 20.2316 24.3888 18.8047L22.096 15.8046L25.7062 14.7363C27.4313 14.2241 27.4313 11.7727 25.7062 11.2605L22.096 10.1922L24.3888 7.19203C25.4879 5.75782 24.0467 3.7748 22.3581 4.38215L18.8134 5.64806L18.9153 1.86496C18.9662 0.057562 16.6444 -0.696131 15.6254 0.789302L13.5 3.92115Z" fill="#CC1215"/>
</svg>
