<svg width="148" height="104" viewBox="0 0 148 104" fill="none" xmlns="http://www.w3.org/2000/svg">
<path d="M74 15.6846L62.3499 3.18648C56.8042 -2.78452 44.0768 0.259517 44.3162 7.48911L44.8748 22.6215L25.4447 17.5579C16.1884 15.1285 8.28873 23.0898 14.3132 28.7974L26.881 40.7979L7.0918 45.0713C-2.36392 47.1202 -2.36392 56.9255 7.0918 58.9743L26.9209 63.2477L14.3531 75.2482C8.32863 80.9851 16.2283 88.9172 25.4846 86.4878L44.8748 81.3949L44.3162 96.5273C44.0369 103.757 56.7643 106.772 62.3499 100.83L74 88.3318L85.6501 100.83C91.1959 106.801 103.923 103.757 103.684 96.5273L103.125 81.3949L122.555 86.4585C131.812 88.8879 139.711 80.9265 133.687 75.219L121.119 63.2184L140.908 58.9451C150.364 56.8962 150.364 47.0909 140.908 45.042L121.119 40.7687L133.687 28.7681C139.711 23.0313 131.812 15.0992 122.555 17.5286L103.125 22.5922L103.684 7.45984C103.963 0.230248 91.2358 -2.78452 85.6501 3.15721L74 15.6846Z" fill="#CC1215"/>
</svg>
