<svg width="26" height="26" viewBox="0 0 26 26" fill="none" xmlns="http://www.w3.org/2000/svg">
<path d="M17.3333 8.66675C19.0572 8.66675 20.7105 9.35157 21.9295 10.5706C23.1485 11.7895 23.8333 13.4428 23.8333 15.1667V22.7501H19.5V15.1667C19.5 14.5921 19.2717 14.041 18.8654 13.6347C18.4591 13.2284 17.908 13.0001 17.3333 13.0001C16.7587 13.0001 16.2076 13.2284 15.8013 13.6347C15.3949 14.041 15.1667 14.5921 15.1667 15.1667V22.7501H10.8333V15.1667C10.8333 13.4428 11.5181 11.7895 12.7371 10.5706C13.9561 9.35157 15.6094 8.66675 17.3333 8.66675Z" stroke="#161616" stroke-width="3" stroke-linecap="round" stroke-linejoin="round"/>
<path d="M6.49999 9.75008H2.16666V22.7501H6.49999V9.75008Z" stroke="#161616" stroke-width="3" stroke-linecap="round" stroke-linejoin="round"/>
<path d="M4.33332 6.50008C5.52994 6.50008 6.49999 5.53003 6.49999 4.33341C6.49999 3.1368 5.52994 2.16675 4.33332 2.16675C3.13671 2.16675 2.16666 3.1368 2.16666 4.33341C2.16666 5.53003 3.13671 6.50008 4.33332 6.50008Z" stroke="#161616" stroke-width="3" stroke-linecap="round" stroke-linejoin="round"/>
</svg>
