<svg width="26" height="26" viewBox="0 0 26 26" fill="none" xmlns="http://www.w3.org/2000/svg">
<g clip-path="url(#clip0_16_1083)">
<path d="M18.9583 7.04175H18.9692M7.58332 2.16675H18.4167C21.4082 2.16675 23.8333 4.59187 23.8333 7.58341V18.4167C23.8333 21.4083 21.4082 23.8334 18.4167 23.8334H7.58332C4.59178 23.8334 2.16666 21.4083 2.16666 18.4167V7.58341C2.16666 4.59187 4.59178 2.16675 7.58332 2.16675ZM17.3333 12.3176C17.467 13.2192 17.313 14.14 16.8932 14.949C16.4734 15.758 15.8092 16.4141 14.9951 16.8239C14.1809 17.2337 13.2583 17.3763 12.3584 17.2315C11.4585 17.0867 10.6272 16.6618 9.98273 16.0173C9.33823 15.3728 8.91337 14.5415 8.76856 13.6416C8.62376 12.7418 8.76639 11.8191 9.17618 11.005C9.58596 10.1908 10.242 9.52663 11.0511 9.10684C11.8601 8.68705 12.7809 8.53305 13.6825 8.66675C14.6022 8.80312 15.4536 9.23167 16.111 9.88908C16.7684 10.5465 17.1969 11.3979 17.3333 12.3176Z" stroke="#161616" stroke-width="3" stroke-linecap="round" stroke-linejoin="round"/>
</g>
<defs>
<clipPath id="clip0_16_1083">
<rect width="26" height="26" fill="white"/>
</clipPath>
</defs>
</svg>
