<svg width="29" height="29" viewBox="0 0 29 29" fill="none" xmlns="http://www.w3.org/2000/svg">
<path d="M4.83332 24.1666C4.16874 24.1666 3.59982 23.93 3.12655 23.4567C2.65329 22.9834 2.41666 22.4145 2.41666 21.7499V7.24992C2.41666 6.58534 2.65329 6.01641 3.12655 5.54315C3.59982 5.06988 4.16874 4.83325 4.83332 4.83325H24.1667C24.8312 4.83325 25.4002 5.06988 25.8734 5.54315C26.3467 6.01641 26.5833 6.58534 26.5833 7.24992V21.7499C26.5833 22.4145 26.3467 22.9834 25.8734 23.4567C25.4002 23.93 24.8312 24.1666 24.1667 24.1666H4.83332ZM14.5 15.7083L4.83332 9.66658V21.7499H24.1667V9.66658L14.5 15.7083ZM14.5 13.2916L24.1667 7.24992H4.83332L14.5 13.2916ZM4.83332 9.66658V7.24992V21.7499V9.66658Z" fill="#161616"/>
</svg>
